HIERARCHY
ROOT Hips
{
	OFFSET	0.00	0.00	0.00
	CHANNELS 6 Xposition Yposition Zposition Zrotation Xrotation Yrotation
	JOINT LeftUpLeg
	{
		OFFSET	 0.126116	-0.065224	 0.014019
		CHANNELS 3 Zrotation Xrotation Yrotation
		JOINT LeftLeg
		{
			OFFSET	 0.000000	 0.569914	 0.000000
			CHANNELS 3 Zrotation Xrotation Yrotation
			JOINT LeftFoot
			{
				OFFSET	 0.000000	 0.544423	 0.000000
				CHANNELS 3 Zrotation Xrotation Yrotation
				JOINT LeftToeBase
				{
					OFFSET	 0.000000	 0.207117	 0.000000
					CHANNELS 3 Zrotation Xrotation Yrotation
					End Site
					{
						OFFSET	 0.000000	 0.207117	 0.000000
					}
				}
			}
		}
	}
	JOINT RightUpLeg
	{
		OFFSET	-0.124023	-0.065224	 0.008373
		CHANNELS 3 Zrotation Xrotation Yrotation
		JOINT RightLeg
		{
			OFFSET	 0.000000	 0.570047	 0.000000
			CHANNELS 3 Zrotation Xrotation Yrotation
			JOINT RightFoot
			{
				OFFSET	 0.000000	 0.544354	 0.000000
				CHANNELS 3 Zrotation Xrotation Yrotation
				JOINT RightToeBase
				{
					OFFSET	 0.000000	 0.207540	 0.000000
					CHANNELS 3 Zrotation Xrotation Yrotation
					End Site
					{
						OFFSET	 0.000000	 0.207540	 0.000000
					}
				}
			}
		}
	}
	JOINT Spine
	{
		OFFSET	 0.000184	 0.117403	 0.007763
		CHANNELS 3 Zrotation Xrotation Yrotation
		JOINT Spine1
		{
			OFFSET	 0.000000	 0.137269	 0.000000
			CHANNELS 3 Zrotation Xrotation Yrotation
			JOINT Spine2
			{
				OFFSET	 0.000000	 0.156879	 0.000000
				CHANNELS 3 Zrotation Xrotation Yrotation
				JOINT LeftShoulder
				{
					OFFSET	 0.080501	 0.160143	 0.002496
					CHANNELS 3 Zrotation Xrotation Yrotation
					JOINT LeftArm
					{
						OFFSET	 0.000000	 0.164363	 0.000000
						CHANNELS 3 Zrotation Xrotation Yrotation
						JOINT LeftForeArm
						{
							OFFSET	 0.000000	 0.364576	 0.000000
							CHANNELS 3 Zrotation Xrotation Yrotation
							JOINT LeftHand
							{
								OFFSET	 0.000000	 0.360812	 0.000000
								CHANNELS 3 Zrotation Xrotation Yrotation
								JOINT LeftHandIndex1
								{
									OFFSET	 0.000000	 0.086006	 0.000000
									CHANNELS 3 Zrotation Xrotation Yrotation
									JOINT LeftHandIndex2
									{
										OFFSET	 0.000000	 0.047237	 0.000000
										CHANNELS 3 Zrotation Xrotation Yrotation
										JOINT LeftHandIndex3
										{
											OFFSET	-0.004284	 0.038165	 0.000551
											CHANNELS 3 Zrotation Xrotation Yrotation
											End Site
											{
												OFFSET	-0.004284	 0.038165	 0.000551
											}
										}
									}
								}
							}
						}
					}
				}
				JOINT Neck
				{
					OFFSET	 0.000000	 0.176489	 0.000000
					CHANNELS 3 Zrotation Xrotation Yrotation
					JOINT Head
					{
						OFFSET	 0.000000	 0.077941	 0.001747
						CHANNELS 3 Zrotation Xrotation Yrotation
						End Site
						{
							OFFSET	 0.000000	 0.077941	 0.001747
						}
					}
				}
				JOINT RightShoulder
				{
					OFFSET	-0.080363	 0.159706	-0.000306
					CHANNELS 3 Zrotation Xrotation Yrotation
					JOINT RightArm
					{
						OFFSET	 0.000000	 0.164196	 0.000000
						CHANNELS 3 Zrotation Xrotation Yrotation
						JOINT RightForeArm
						{
							OFFSET	 0.000000	 0.365611	 0.000000
							CHANNELS 3 Zrotation Xrotation Yrotation
							JOINT RightHand
							{
								OFFSET	 0.000000	 0.360648	 0.000000
								CHANNELS 3 Zrotation Xrotation Yrotation
								JOINT RightHandIndex1
								{
									OFFSET	 0.000000	 0.069977	 0.000000
									CHANNELS 3 Zrotation Xrotation Yrotation
									JOINT RightHandIndex2
									{
										OFFSET	 0.000000	 0.052305	 0.000000
										CHANNELS 3 Zrotation Xrotation Yrotation
										JOINT RightHandIndex3
										{
											OFFSET	 0.009002	 0.042196	 0.000782
											CHANNELS 3 Zrotation Xrotation Yrotation
											End Site
											{
												OFFSET	 0.009002	 0.042196	 0.000782
											}
										}
									}
								}
							}
						}
					}
				}
			}
		}
	}
}
MOTION
Frames:    4
Frame Time: 0.03333334
-0.017835	 1.257211	 0.138802	 4.133318	 0.105020	 173.974800	-167.558500	 15.292180	-0.615102	 2.113869	-21.804450	 0.987807	 42.989210	 44.763820	-59.395170	 4.912823	 28.009660	-6.307256	-176.259500	 7.248146	 5.609942	-1.882140	-20.861220	 1.822027	-55.172810	 58.370550	 63.247490	-0.376427	 31.171580	 1.632974	 1.317627	 4.371634	-0.046491	 6.895836	 4.589388	 0.156776	-4.991079	-1.522616	 3.478173	-112.567200	 3.133141	 88.314830	 8.596843	 53.422000	 19.832910	 5.114491	-0.269214	 0.581254	 7.219713	-1.806463	-44.297850	-8.018996	 12.507960	-5.832783	-7.228732	 12.664420	 2.804066	 4.963066	-4.014628	-0.346955	 1.522420	-13.921180	 1.350942	-1.952848	 8.615865	-27.447500	 109.130600	 0.670840	-88.593250	-12.028660	 62.591530	 11.590400	-5.035327	-0.466322	 41.385040	-9.886272	 1.394091	-53.537330	 2.016404	 8.310972	 8.960704	 15.202880	 20.246480	-6.343506	-8.239867	-2.131385	 0.447455
-0.022895	 1.261392	 0.197280	 3.799182	-0.380993	 174.089400	-167.824400	 16.726750	-0.654811	 2.144467	-22.089750	 1.052469	 42.565260	 44.318370	-58.778150	 4.912827	 28.009680	-6.307239	-176.456900	 10.188480	 5.321882	-1.746807	-19.478420	 1.736991	-51.451000	 55.701340	 58.247540	-0.387473	 31.185080	 1.643929	 1.266005	 4.084989	 0.145181	 5.447819	 3.291284	 0.121442	-3.431604	-0.350334	 3.729854	-112.504400	 3.054498	 88.304050	 8.780679	 54.395100	 19.538800	 4.997837	-0.261856	 0.591130	 5.430041	-3.116156	-43.892510	-7.946640	 12.567260	-5.850715	-7.229060	 12.650650	 2.802187	 4.963066	-4.014628	-0.346955	 1.457595	-13.822700	 1.384102	-1.875330	 9.121062	-27.581050	 109.052100	 0.730806	-88.623660	-12.269600	 62.425090	 12.068970	-4.929935	-0.467784	 41.180100	-8.010860	 1.930141	-54.423190	 1.954143	 8.143017	 8.959158	 15.203130	 20.283740	-6.353703	-8.239867	-2.131385	 0.447455
-0.027783	 1.266214	 0.259663	 3.323655	-0.895550	 174.385800	-168.224700	 16.515270	-0.536976	 1.808489	-18.895510	 1.055231	 41.354950	 42.496360	-56.633800	 4.912836	 28.009730	-6.307195	-176.822700	 11.987540	 5.208952	-1.352514	-15.316360	 1.563431	-47.211910	 51.684590	 52.135030	-0.413058	 31.216330	 1.669302	 1.126109	 3.911226	 0.663843	 3.791753	 1.280396	-0.244880	-1.601417	 1.232254	 4.208795	-112.359100	 2.872435	 88.279380	 8.912447	 55.700230	 19.068490	 4.909880	-0.254471	 0.614786	 2.995721	-4.669113	-43.464240	-7.779019	 12.704460	-5.892530	-7.229823	 12.618800	 2.797839	 4.963066	-4.014628	-0.346955	 1.307421	-13.594880	 1.461245	-1.745062	 10.034780	-27.904500	 108.870500	 0.869790	-88.693740	-12.762320	 62.335940	 13.065540	-4.847213	-0.485555	 40.705760	-5.297462	 2.393217	-56.494350	 1.810098	 7.754226	 8.954872	 15.203740	 20.369980	-6.377313	-8.239867	-2.131385	 0.447455
-0.029327	 1.268608	 0.288350	 2.903951	-1.164913	 174.752700	-168.670100	 15.879730	-0.228728	 1.536804	-16.218690	 1.118602	 40.707200	 41.129910	-55.285610	 4.912847	 28.009790	-6.307142	-177.226300	 12.197980	 5.417950	-1.056023	-12.070710	 1.293434	-45.357090	 49.168250	 49.147450	-0.445052	 31.255330	 1.701031	 0.993597	 4.040819	 1.326360	 2.429427	-0.848308	-0.860529	 0.012184	 2.822912	 4.790627	-112.177700	 2.644931	 88.249280	 9.156152	 56.943070	 18.411310	 4.906022	-0.250848	 0.644878	 0.432016	-5.931626	-43.203540	-7.569356	 12.875660	-5.945376	-7.230779	 12.579010	 2.792407	 4.963066	-4.014628	-0.346955	 1.119576	-13.310570	 1.558373	-1.586839	 11.084710	-28.308710	 108.643900	 1.043692	-88.780660	-13.596320	 62.175990	 14.474370	-4.846084	-0.516412	 40.114970	-2.273112	 2.539455	-59.124580	 1.630279	 7.268515	 8.948139	 15.204550	 20.477710	-6.406826	-8.239867	-2.131385	 0.447455
